@startuml
class ApplicationUser {
    + IsActived : bool <<get>> <<set>>
    + ModifiedBy : string <<get>> <<set>>
    + RegisterType : string <<get>> <<set>>
    + Avatar : string <<get>> <<set>>
    + NickName : string <<get>> <<set>>
    + FirstName : string <<get>> <<set>>
    + LastName : string <<get>> <<set>>
    + Gender : string <<get>> <<set>>
    + CountryId : int <<get>> <<set>>
    + Culture : string <<get>> <<set>>
    + DOB : DateTime? <<get>> <<set>>
}
class "ICollection`1"<T> {
}
IdentityUser <|-- ApplicationUser
ApplicationUser --> "JoinDate" DateTime
ApplicationUser o-> "Roles<IdentityUserRole<string>>" "ICollection`1"
ApplicationUser o-> "Claims<IdentityUserClaim<string>>" "ICollection`1"
ApplicationUser o-> "Logins<IdentityUserLogin<string>>" "ICollection`1"
@enduml
