@startuml
class ContentUpdateViewModel {
    + Id : int <<get>> <<set>>
    + ReferenceId : int? <<get>> <<set>>
    + Type : int? <<get>> <<set>>
    + Title : string <<get>> <<set>>
    + Name : string <<get>> <<set>>
    + Description : string <<get>> <<set>>
    + FormTemplate : string <<get>> <<set>>
    + EdmTemplate : string <<get>> <<set>>
    + EdmSubject : string <<get>> <<set>>
    + EdmFrom : string <<get>> <<set>>
    + EdmAutoSend : bool? <<get>> <<set>>
    + Status : string <<get>> <<set>>
    + ContentUpdateViewModel()
    + ContentUpdateViewModel(model:MixAttributeSet, _context:MixCmsContext, _transaction:IDbContextTransaction)
    + <<override>> ExpandView(_context:MixCmsContext, _transaction:IDbContextTransaction) : void
    + <<override>> ParseModel(_context:MixCmsContext, _transaction:IDbContextTransaction) : MixAttributeSet
    + LoadPostData(postId:int, specificulture:string, pageSize:int?, pageIndex:int?, _context:MixCmsContext, _transaction:IDbContextTransaction) : void
}
class "ViewModelBase`3"<T1,T2,T3> {
}
class "List`1"<T> {
}
class "PaginationModel`1"<T> {
}
"ViewModelBase`3" "<MixCmsContext,MixAttributeSet,ContentUpdateViewModel>" <|-- ContentUpdateViewModel
ContentUpdateViewModel --> "CreatedDateTime" DateTime
ContentUpdateViewModel --> "Attributes<MixAttributeFields.UpdateViewModel>" "List`1"
ContentUpdateViewModel --> "PostData<MixRelatedAttributeDatas.UpdateViewModel>" "PaginationModel`1"
@enduml
