@startuml
class ReadMvcViewModel {
    + Id : int <<get>> <<set>>
    + ReferenceId : int? <<get>> <<set>>
    + Type : string <<get>> <<set>>
    + Title : string <<get>> <<set>>
    + Name : string <<get>> <<set>>
    + Description : string <<get>> <<set>>
    + FormTemplate : string <<get>> <<set>>
    + EdmTemplate : string <<get>> <<set>>
    + EdmSubject : string <<get>> <<set>>
    + EdmFrom : string <<get>> <<set>>
    + EdmAutoSend : bool? <<get>> <<set>>
    + CreatedBy : string <<get>> <<set>>
    + ModifiedBy : string <<get>> <<set>>
    + LastModified : DateTime? <<get>> <<set>>
    + Priority : int <<get>> <<set>>
    + ReadMvcViewModel()
    + ReadMvcViewModel(model:MixAttributeSet, _context:MixCmsContext, _transaction:IDbContextTransaction)
    + <<override>> ExpandView(_context:MixCmsContext, _transaction:IDbContextTransaction) : void
    + LoadData(parentId:string, parentType:MixDatabaseParentType, specificulture:string, pageSize:int?, pageIndex:int?, _context:MixCmsContext, _transaction:IDbContextTransaction) : void
}
class "ViewModelBase`3"<T1,T2,T3> {
}
class "PaginationModel`1"<T> {
}
class "List`1"<T> {
}
"ViewModelBase`3" "<MixCmsContext,MixAttributeSet,ReadMvcViewModel>" <|-- ReadMvcViewModel
ReadMvcViewModel --> "CreatedDateTime" DateTime
ReadMvcViewModel --> "Status" MixContentStatus
ReadMvcViewModel --> "Data<MixRelatedAttributeDatas.ReadMvcViewModel>" "PaginationModel`1"
ReadMvcViewModel --> "Fields<MixAttributeFields.UpdateViewModel>" "List`1"
@enduml
