@startuml
class DeleteViewModel {
    + Id : int <<get>> <<set>>
    + Specificulture : string <<get>> <<set>>
    + Priority : int <<get>> <<set>>
    + Name : string <<get>> <<set>>
    + Title : string <<get>> <<set>>
    + Image : string <<get>> <<set>>
    + Thumbnail : string <<get>> <<set>>
    + CreatedBy : string <<get>> <<set>>
    + Domain : string <<get>>
    + ImageUrl : string <<get>>
    + ThumbnailUrl : string <<get>>
    + IsActived : bool <<get>> <<set>>
    + AssetFolder : string <<get>>
    + UploadsFolder : string <<get>>
    + TemplateFolder : string <<get>>
    + DeleteViewModel()
    + DeleteViewModel(model:MixTheme, _context:MixCmsContext, _transaction:IDbContextTransaction)
    + <<override>> ExpandView(_context:MixCmsContext, _transaction:IDbContextTransaction) : void
    + <<override>> <<async>> RemoveRelatedModelsAsync(view:DeleteViewModel, _context:MixCmsContext, _transaction:IDbContextTransaction) : Task<RepositoryResponse<bool>>
}
class "ViewModelBase`3"<T1,T2,T3> {
}
class "List`1"<T> {
}
"ViewModelBase`3" "<MixCmsContext,MixTheme,DeleteViewModel>" <|-- DeleteViewModel
DeleteViewModel --> "CreatedDateTime" DateTime
DeleteViewModel --> "Status" MixContentStatus
DeleteViewModel --> "TemplateAsset" FileViewModel
DeleteViewModel --> "Asset" FileViewModel
DeleteViewModel --> "Templates<MixTemplates.DeleteViewModel>" "List`1"
@enduml
