@startuml
class DeleteViewModel {
    + Id : int <<get>> <<set>>
    + ThemeId : int <<get>> <<set>>
    + ThemeName : string <<get>> <<set>>
    + FolderType : string <<get>> <<set>>
    + FileFolder : string <<get>> <<set>>
    + FileName : string <<get>> <<set>>
    + Extension : string <<get>> <<set>>
    + LastModified : DateTime? <<get>> <<set>>
    + ModifiedBy : string <<get>> <<set>>
    + AssetFolder : string <<get>>
    + TemplateFolder : string <<get>>
    + TemplatePath : string <<get>>
    + DeleteViewModel()
    + DeleteViewModel(model:MixTemplate, _context:MixCmsContext, _transaction:IDbContextTransaction)
    + <<override>> ParseModel(_context:MixCmsContext, _transaction:IDbContextTransaction) : MixTemplate
    + <<override>> RemoveModel(isRemoveRelatedModels:bool, _context:MixCmsContext, _transaction:IDbContextTransaction) : RepositoryResponse<MixTemplate>
    + <<override>> <<async>> RemoveModelAsync(isRemoveRelatedModels:bool, _context:MixCmsContext, _transaction:IDbContextTransaction) : Task<RepositoryResponse<MixTemplate>>
}
class "ViewModelBase`3"<T1,T2,T3> {
}
"ViewModelBase`3" "<MixCmsContext,MixTemplate,DeleteViewModel>" <|-- DeleteViewModel
DeleteViewModel --> "CreatedDateTime" DateTime
@enduml
