@startuml
class ReadViewModel {
    + Id : int <<get>> <<set>>
    + ThemeId : int <<get>> <<set>>
    + ThemeName : string <<get>> <<set>>
    + FolderType : string <<get>> <<set>>
    + FileFolder : string <<get>> <<set>>
    + FileName : string <<get>> <<set>>
    + Extension : string <<get>> <<set>>
    + Content : string <<get>> <<set>>
    + MobileContent : string <<get>> <<set>> = "{}"
    + SpaContent : string <<get>> <<set>> = ""
    + Scripts : string <<get>> <<set>>
    + Styles : string <<get>> <<set>>
    + CreatedBy : string <<get>> <<set>>
    + ModifiedBy : string <<get>> <<set>>
    + LastModified : DateTime? <<get>> <<set>>
    + Priority : int <<get>> <<set>>
    + AssetFolder : string <<get>>
    + TemplateFolder : string <<get>>
    + TemplatePath : string <<get>>
    + ReadViewModel()
    + ReadViewModel(model:MixTemplate, _context:MixCmsContext, _transaction:IDbContextTransaction)
    + <<override>> ExpandView(_context:MixCmsContext, _transaction:IDbContextTransaction) : void
    + <<override>> ParseModel(_context:MixCmsContext, _transaction:IDbContextTransaction) : MixTemplate
    + <<override>> RemoveModel(isRemoveRelatedModels:bool, _context:MixCmsContext, _transaction:IDbContextTransaction) : RepositoryResponse<MixTemplate>
    + <<override>> SaveSubModels(parent:MixTemplate, _context:MixCmsContext, _transaction:IDbContextTransaction) : RepositoryResponse<bool>
    + <<override>> <<async>> RemoveModelAsync(isRemoveRelatedModels:bool, _context:MixCmsContext, _transaction:IDbContextTransaction) : Task<RepositoryResponse<MixTemplate>>
    + <<override>> SaveSubModelsAsync(parent:MixTemplate, _context:MixCmsContext, _transaction:IDbContextTransaction) : Task<RepositoryResponse<bool>>
    + {static} GetTemplateByPath(path:string, culture:string, _context:MixCmsContext, _transaction:IDbContextTransaction) : RepositoryResponse<ReadViewModel>
    + {static} <<async>> GetTemplateByPathAsync(path:string, culture:string, _context:MixCmsContext, _transaction:IDbContextTransaction) : Task<RepositoryResponse<ReadViewModel>>
    + {static} GetTemplateByPath(themeId:int, path:string, type:string, _context:MixCmsContext, _transaction:IDbContextTransaction) : ReadViewModel
    + {static} GetDefault(activedTemplate:string, folderType:string, folder:string, specificulture:string) : ReadViewModel
}
class "ViewModelBase`3"<T1,T2,T3> {
}
"ViewModelBase`3" "<MixCmsContext,MixTemplate,ReadViewModel>" <|-- ReadViewModel
ReadViewModel --> "CreatedDateTime" DateTime
ReadViewModel --> "Status" MixContentStatus
@enduml
