@startuml
class MixMessengerUser <<partial>> {
    + MixMessengerUser()
    + Id : string <<get>> <<set>>
    + FacebookId : string <<get>> <<set>>
    + Avatar : string <<get>> <<set>>
    + LastModified : DateTime? <<get>> <<set>>
    + Name : string <<get>> <<set>>
    + Status : string <<get>> <<set>>
}
class "ICollection`1"<T> {
}
MixMessengerUser --> "CreatedDate" DateTime
MixMessengerUser --> "MixMessengerMessage<MixMessengerMessage>" "ICollection`1"
MixMessengerUser --> "MixMessengerNavRoomUser<MixMessengerNavRoomUser>" "ICollection`1"
MixMessengerUser --> "MixMessengerNavTeamUser<MixMessengerNavTeamUser>" "ICollection`1"
@enduml
