@startuml
class ImportViewModel {
    + Id : string <<get>> <<set>>
    + Specificulture : string <<get>> <<set>>
    + AttributeFieldId : int <<get>> <<set>>
    + Regex : string <<get>> <<set>>
    + AttributeFieldName : string <<get>> <<set>>
    + AttributeSetName : string <<get>> <<set>>
    + BooleanValue : bool? <<get>> <<set>>
    + DataId : string <<get>> <<set>>
    + DateTimeValue : DateTime? <<get>> <<set>>
    + DoubleValue : double? <<get>> <<set>>
    + IntegerValue : int? <<get>> <<set>>
    + StringValue : string <<get>> <<set>>
    + EncryptValue : string <<get>> <<set>>
    + EncryptKey : string <<get>> <<set>>
    + EncryptType : int <<get>> <<set>>
    + CreatedBy : string <<get>> <<set>>
    + ModifiedBy : string <<get>> <<set>>
    + LastModified : DateTime? <<get>> <<set>>
    + Priority : int <<get>> <<set>>
    + ImportViewModel()
    + ImportViewModel(model:MixAttributeSetValue, _context:MixCmsContext, _transaction:IDbContextTransaction)
    + <<override>> ParseModel(_context:MixCmsContext, _transaction:IDbContextTransaction) : MixAttributeSetValue
    + <<override>> ExpandView(_context:MixCmsContext, _transaction:IDbContextTransaction) : void
    + <<override>> Validate(_context:MixCmsContext, _transaction:IDbContextTransaction) : void
}
class "ViewModelBase`3"<T1,T2,T3> {
}
"ViewModelBase`3" "<MixCmsContext,MixAttributeSetValue,ImportViewModel>" <|-- ImportViewModel
ImportViewModel --> "DataType" MixDataType
ImportViewModel --> "CreatedDateTime" DateTime
ImportViewModel --> "Status" MixContentStatus
@enduml
