@startuml
class AdditionalViewModel {
    + Id : string <<get>> <<set>>
    + Specificulture : string <<get>> <<set>>
    + AttributeSetId : int <<get>> <<set>>
    + AttributeSetName : string <<get>> <<set>>
    + CreatedBy : string <<get>> <<set>>
    + ModifiedBy : string <<get>> <<set>>
    + LastModified : DateTime? <<get>> <<set>>
    + Priority : int <<get>> <<set>>
    + DetailsUrl : string <<get>>
    + ParentId : string <<get>> <<set>>
    + AdditionalViewModel()
    + AdditionalViewModel(model:MixAttributeSetData, _context:MixCmsContext, _transaction:IDbContextTransaction)
    + <<override>> ExpandView(_context:MixCmsContext, _transaction:IDbContextTransaction) : void
    + <<override>> ParseModel(_context:MixCmsContext, _transaction:IDbContextTransaction) : MixAttributeSetData
    + <<override>> <<async>> SaveModelAsync(isSaveSubModels:bool, _context:MixCmsContext, _transaction:IDbContextTransaction) : Task<RepositoryResponse<AdditionalViewModel>>
    + <<override>> SaveModel(isSaveSubModels:bool, _context:MixCmsContext, _transaction:IDbContextTransaction) : RepositoryResponse<AdditionalViewModel>
    + <<override>> <<async>> SaveSubModelsAsync(parent:MixAttributeSetData, _context:MixCmsContext, _transaction:IDbContextTransaction) : Task<RepositoryResponse<bool>>
    + {static} <<async>> SaveObjectAsync(data:JObject, attributeSetName:string) : Task<RepositoryResponse<FormViewModel>>
    + HasValue(fieldName:string) : bool
    + Property(fieldName:string) : T
}
class "ViewModelBase`3"<T1,T2,T3> {
}
class "List`1"<T> {
}
"ViewModelBase`3" "<MixCmsContext,MixAttributeSetData,AdditionalViewModel>" <|-- AdditionalViewModel
AdditionalViewModel --> "Cultures<Domain.Core.Models.SupportedCulture>" "List`1"
AdditionalViewModel --> "CreatedDateTime" DateTime
AdditionalViewModel --> "Status" MixContentStatus
AdditionalViewModel --> "Obj" JObject
AdditionalViewModel --> "ParentType" MixDatabaseParentType
AdditionalViewModel o-> "RelatedData<MixRelatedAttributeDatas.UpdateViewModel>" "List`1"
AdditionalViewModel --> "Values<MixAttributeSetValues.UpdateViewModel>" "List`1"
AdditionalViewModel --> "Fields<MixAttributeFields.UpdateViewModel>" "List`1"
AdditionalViewModel o-> "RefData<MixAttributeSetDatas.AdditionalViewModel>" "List`1"
@enduml
