@startuml
class ImportViewModel {
    + Id : int <<get>> <<set>>
    + Specificulture : string <<get>> <<set>>
    + Template : string <<get>> <<set>>
    + Thumbnail : string <<get>> <<set>>
    + Image : string <<get>> <<set>>
    + Icon : string <<get>> <<set>>
    + CssClass : string <<get>> <<set>>
    + Layout : string <<get>> <<set>>
    + Title : string <<get>> <<set>>
    + Excerpt : string <<get>> <<set>>
    + Content : string <<get>> <<set>>
    + SeoName : string <<get>> <<set>>
    + SeoTitle : string <<get>> <<set>>
    + SeoDescription : string <<get>> <<set>>
    + SeoKeywords : string <<get>> <<set>>
    + Source : string <<get>> <<set>>
    + Views : int? <<get>> <<set>>
    + Tags : string <<get>> <<set>>
    + StaticUrl : string <<get>> <<set>>
    + Level : int? <<get>> <<set>>
    + PageSize : int? <<get>> <<set>>
    + CreatedBy : string <<get>> <<set>>
    + ModifiedBy : string <<get>> <<set>>
    + LastModified : DateTime? <<get>> <<set>>
    + Priority : int <<get>> <<set>>
    + IsExportData : bool <<get>> <<set>>
    + ThemeName : string <<get>> <<set>> = "default"
    + ImportViewModel()
    + ImportViewModel(model:MixPage, _context:MixCmsContext, _transaction:IDbContextTransaction)
    + <<override>> ExpandView(_context:MixCmsContext, _transaction:IDbContextTransaction) : void
    + GetAliases(context:MixCmsContext, transaction:IDbContextTransaction) : List<MixUrlAliases.UpdateViewModel>
    + GetModuleNavs(context:MixCmsContext, transaction:IDbContextTransaction) : List<MixPageModules.ImportViewModel>
    + GetPostNavs(context:MixCmsContext, transaction:IDbContextTransaction) : List<MixPagePosts.ImportViewModel>
}
class "ViewModelBase`3"<T1,T2,T3> {
}
class "List`1"<T> {
}
"ViewModelBase`3" "<MixCmsContext,MixPage,ImportViewModel>" <|-- ImportViewModel
ImportViewModel --> "Cultures<Domain.Core.Models.SupportedCulture>" "List`1"
ImportViewModel --> "Type" MixPageType
ImportViewModel --> "CreatedDateTime" DateTime
ImportViewModel --> "Status" MixContentStatus
ImportViewModel --> "UrlAliases<MixUrlAliases.UpdateViewModel>" "List`1"
@enduml
