@startuml
class NavUserRoleViewModel {
    + Specificulture : string <<get>> <<set>>
    + Priority : int <<get>> <<set>>
    + UserId : string <<get>> <<set>>
    + RoleId : string <<get>> <<set>>
    + ApplicationUserId : string <<get>> <<set>>
    + IsActived : bool <<get>> <<set>>
    + Description : string <<get>> <<set>>
    + NavUserRoleViewModel()
    + NavUserRoleViewModel(model:AspNetUserRoles, _context:MixCmsAccountContext, _transaction:IDbContextTransaction)
    + <<override>> ExpandView(_context:MixCmsAccountContext, _transaction:IDbContextTransaction) : void
}
class "ViewModelBase`3"<T1,T2,T3> {
}
"ViewModelBase`3" "<MixCmsAccountContext,AspNetUserRoles,NavUserRoleViewModel>" <|-- NavUserRoleViewModel
NavUserRoleViewModel --> "Role" RoleViewModel
@enduml
