@startuml
class ImportViewModel {
    + ImportViewModel(model:MixPageModule, _context:MixCmsContext, _transaction:IDbContextTransaction)
    + ImportViewModel()
    + Id : int <<get>> <<set>>
    + Specificulture : string <<get>> <<set>>
    + ModuleId : int <<get>> <<set>>
    + PageId : int <<get>> <<set>>
    + IsActived : bool <<get>> <<set>>
    + Image : string <<get>> <<set>>
    + Description : string <<get>> <<set>>
    + CreatedBy : string <<get>> <<set>>
    + ModifiedBy : string <<get>> <<set>>
    + LastModified : DateTime? <<get>> <<set>>
    + Priority : int <<get>> <<set>>
    + <<override>> ExpandView(_context:MixCmsContext, _transaction:IDbContextTransaction) : void
}
class "ViewModelBase`3"<T1,T2,T3> {
}
"ViewModelBase`3" "<MixCmsContext,MixPageModule,ImportViewModel>" <|-- ImportViewModel
ImportViewModel --> "CreatedDateTime" DateTime
ImportViewModel --> "Status" MixContentStatus
@enduml
