@startuml
class ImportViewModel {
    + Id : int <<get>> <<set>>
    + Specificulture : string <<get>> <<set>>
    + Keyword : string <<get>> <<set>>
    + Category : string <<get>> <<set>>
    + Description : string <<get>> <<set>>
    + Value : string <<get>> <<set>>
    + DefaultValue : string <<get>> <<set>>
    + CreatedBy : string <<get>> <<set>>
    + ModifiedBy : string <<get>> <<set>>
    + LastModified : DateTime? <<get>> <<set>>
    + Priority : int <<get>> <<set>>
    + Domain : string <<get>>
    + ImportViewModel()
    + ImportViewModel(model:MixLanguage, _context:MixCmsContext, _transaction:IDbContextTransaction)
    + <<override>> ParseModel(_context:MixCmsContext, _transaction:IDbContextTransaction) : MixLanguage
    + <<override>> <<async>> RemoveRelatedModelsAsync(view:ImportViewModel, _context:MixCmsContext, _transaction:IDbContextTransaction) : Task<RepositoryResponse<bool>>
    + <<override>> <<async>> SaveModelAsync(isSaveSubModels:bool, _context:MixCmsContext, _transaction:IDbContextTransaction) : Task<RepositoryResponse<ImportViewModel>>
    + <<override>> <<async>> RemoveModelAsync(isRemoveRelatedModels:bool, _context:MixCmsContext, _transaction:IDbContextTransaction) : Task<RepositoryResponse<MixLanguage>>
    + <<override>> Validate(_context:MixCmsContext, _transaction:IDbContextTransaction) : void
    + <<override>> ExpandView(_context:MixCmsContext, _transaction:IDbContextTransaction) : void
    + <<override>> RemoveRelatedModels(view:ImportViewModel, _context:MixCmsContext, _transaction:IDbContextTransaction) : RepositoryResponse<bool>
    + {static} <<async>> ImportLanguages(arrLanguage:List<MixLanguage>, destCulture:string, _context:MixCmsContext, _transaction:IDbContextTransaction) : Task<RepositoryResponse<bool>>
}
class "ViewModelBase`3"<T1,T2,T3> {
}
class "List`1"<T> {
}
"ViewModelBase`3" "<MixCmsContext,MixLanguage,ImportViewModel>" <|-- ImportViewModel
ImportViewModel --> "Cultures<SupportedCulture>" "List`1"
ImportViewModel --> "DataType" MixDataType
ImportViewModel --> "CreatedDateTime" DateTime
ImportViewModel --> "Status" MixContentStatus
ImportViewModel --> "Property" DataValueViewModel
@enduml
