@startuml
class MobileViewModel {
    + Id : int <<get>> <<set>>
    + Specificulture : string <<get>> <<set>>
    + Priority : int <<get>> <<set>>
    + Keyword : string <<get>> <<set>>
    + Value : string <<get>> <<set>>
    + DefaultValue : string <<get>> <<set>>
    + MobileViewModel()
    + MobileViewModel(model:MixLanguage, _context:MixCmsContext, _transaction:IDbContextTransaction)
    + <<override>> RemoveRelatedModels(view:MobileViewModel, _context:MixCmsContext, _transaction:IDbContextTransaction) : RepositoryResponse<bool>
    + <<override>> <<async>> RemoveRelatedModelsAsync(view:MobileViewModel, _context:MixCmsContext, _transaction:IDbContextTransaction) : Task<RepositoryResponse<bool>>
    + {static} <<async>> ImportLanguages(arrLanguage:List<MixLanguage>, destCulture:string, _context:MixCmsContext, _transaction:IDbContextTransaction) : Task<RepositoryResponse<bool>>
}
class "ViewModelBase`3"<T1,T2,T3> {
}
class "List`1"<T> {
}
"ViewModelBase`3" "<MixCmsContext,MixLanguage,MobileViewModel>" <|-- MobileViewModel
MobileViewModel --> "Cultures<Domain.Core.Models.SupportedCulture>" "List`1"
MobileViewModel --> "DataType" MixDataType
@enduml
