@startuml
class MessengerConnection {
    + Id : string <<get>> <<set>>
    + ConnectionId : string <<get>> <<set>>
    + Name : string <<get>> <<set>>
    + Avatar : string <<get>> <<set>>
    + DeviceId : string <<get>> <<set>>
}
class HubMessage {
    + Content : string <<get>> <<set>>
}
HubMessage --> "Connection" MessengerConnection
HubMessage --> "CreatedDate" DateTime
@enduml
